<?xml version="1.0" standalone="no"?><!DOCTYPE svg PUBLIC "-//W3C//DTD SVG 1.1//EN" "http://www.w3.org/Graphics/SVG/1.1/DTD/svg11.dtd"><svg class="icon" width="16px" height="16.00px" viewBox="0 0 1024 1024" version="1.1" xmlns="http://www.w3.org/2000/svg"><path fill="#000000" d="M512 862.98584c-193.530738 0-350.98584-157.455101-350.98584-350.98584s157.455101-350.98584 350.98584-350.98584 350.98584 157.455101 350.98584 350.98584S705.530738 862.98584 512 862.98584zM512 204.88739c-169.344896 0-307.11261 137.767713-307.11261 307.11261s137.767713 307.11261 307.11261 307.11261 307.11261-137.767713 307.11261-307.11261S681.344896 204.88739 512 204.88739zM460.811154 689.967274c-5.612834 0-11.225669-2.142803-15.510252-6.426363-8.569166-8.569166-8.569166-22.450315 0-31.019481L567.837726 529.983583c8.547677-8.547677 8.547677-22.471804 0-31.019481L445.300902 376.427278c-8.569166-8.569166-8.569166-22.450315 0-31.019481 8.569166-8.569166 22.450315-8.569166 31.019481 0l122.536824 122.536824c25.664519 25.653263 25.664519 67.406203 0 93.059466L476.320383 683.539888C472.0358 687.824471 466.423989 689.967274 460.811154 689.967274z" /></svg>