<?xml version="1.0" standalone="no"?><!DOCTYPE svg PUBLIC "-//W3C//DTD SVG 1.1//EN" "http://www.w3.org/Graphics/SVG/1.1/DTD/svg11.dtd"><svg class="icon" width="32px" height="32.00px" viewBox="0 0 1024 1024" version="1.1" xmlns="http://www.w3.org/2000/svg"><path fill="#cfcfcf" d="M891.328 342.6304c0-84.2816-66.5856-152.6208-148.7616-152.6208-58.1568 0-108.4864 34.272-132.9472 84.192-30.3168-10.1312-62.656-15.6736-96.2688-15.6736-33.2736 0-65.3056 5.4208-95.36 15.3536-24.5184-49.7408-74.752-83.872-132.8-83.872-82.144 0-148.736 68.3392-148.736 152.6208 0 59.3856 33.0816 110.816 81.3504 136.0448-9.8624 31.0912-15.2576 64.256-15.2576 98.7264 0 176.1088 139.136 318.8736 310.8032 318.8736 171.6416 0 310.8032-142.7712 310.8032-318.8736 0-34.2912-5.3376-67.296-15.0976-98.2464C857.824 454.1056 891.328 402.3872 891.328 342.6304zM767.4304 402.7264l-62.4064 64.032c17.984 32.8064 28.288 70.6496 28.288 110.976 0 125.2544-98.9632 226.7968-221.0496 226.7968-122.0608 0-221.0496-101.536-221.0496-226.7968 0-42.4832 11.4112-82.208 31.2192-116.1984l-54.5664-55.9872c-25.152-7.6864-43.5008-31.5648-43.5008-59.8656 0-34.5024 27.2704-62.4832 60.9024-62.4832 30.112 0 55.04 22.432 59.9616 51.8656l49.4016 50.688c34.08-22.0288 74.3936-34.816 117.632-34.816 45.3312 0 87.4624 14.0224 122.5344 38.0352l47.2-48.4224c2.5536-32.096 28.704-57.344 60.6464-57.344 33.632 0 60.9152 27.9808 60.9152 62.4832C803.5584 371.1232 788.704 392.9792 767.4304 402.7264z" /></svg>