<?xml version="1.0" standalone="no"?><!DOCTYPE svg PUBLIC "-//W3C//DTD SVG 1.1//EN" "http://www.w3.org/Graphics/SVG/1.1/DTD/svg11.dtd"><svg class="icon" width="32px" height="31.63px" viewBox="0 0 1036 1024" version="1.1" xmlns="http://www.w3.org/2000/svg"><path fill="#ff5d63" d="M461.598945 265.452308c-7.404308 47.756659-57.79411 92.452571-63.510505 97.392527-4.084747 3.52211-9.09222 5.24378-14.077187 5.24378-6.087736 0-12.130462-2.565626-16.406505-7.550593-7.775648-9.080967-6.740396-22.786813 2.306813-30.607473 12.175473-10.56633 44.763429-43.986989 48.983209-71.162374 3.623385-23.349451-5.89644-33.274374-21.661538-49.72589-13.18822-13.76211-29.594725-30.900044-34.500923-58.142945-15.461275-85.925978 56.241231-142.077187 59.313231-144.417758 9.474813-7.280527 23.034374-5.457582 30.292396 4.062242 7.224264 9.497319 5.435077 23.079385-3.994725 30.371165-0.337582 0.270066-14.347253 11.365275-26.522725 29.94356-15.393758 23.506989-20.963868 47.824176-16.552791 72.321407 2.576879 14.336 11.635341 23.79956 23.113143 35.761231C446.261451 197.609495 468.519385 220.835165 461.598945 265.452308M621.24167 265.452308c-7.41556 47.756659-57.79411 92.452571-63.510505 97.392527-4.084747 3.52211-9.09222 5.24378-14.08844 5.24378-6.076484 0-12.119209-2.565626-16.395253-7.550593-7.786901-9.080967-6.751648-22.786813 2.29556-30.607473 12.186725-10.56633 44.774681-43.986989 48.994462-71.162374 3.612132-23.349451-5.89644-33.274374-21.661538-49.72589-13.199473-13.76211-29.605978-30.900044-34.500923-58.142945-15.461275-85.925978 56.241231-142.077187 59.301978-144.417758 9.486066-7.280527 23.045626-5.457582 30.303648 4.062242 7.213011 9.497319 5.435077 23.079385-3.994725 30.371165-0.337582 0.258813-14.347253 11.354022-26.522725 29.94356-15.393758 23.506989-20.963868 47.824176-16.564044 72.321407 2.576879 14.336 11.646593 23.79956 23.113143 35.761231C605.892923 197.609495 628.16211 220.835165 621.24167 265.452308M301.944967 265.452308c-7.404308 47.756659-57.782857 92.452571-63.510505 97.392527-4.073495 3.52211-9.09222 5.24378-14.077187 5.24378-6.087736 0-12.119209-2.565626-16.406505-7.550593-7.775648-9.080967-6.740396-22.786813 2.306813-30.607473 12.175473-10.56633 44.763429-43.986989 48.983209-71.162374 3.623385-23.349451-5.89644-33.274374-21.650286-49.72589-13.199473-13.76211-29.594725-30.900044-34.512176-58.142945-15.461275-85.925978 56.252484-142.077187 59.313231-144.417758 9.474813-7.280527 23.045626-5.457582 30.292396 4.062242 7.235516 9.497319 5.44633 23.079385-3.983473 30.371165-0.337582 0.270066-14.358505 11.365275-26.533978 29.94356-15.393758 23.506989-20.963868 47.824176-16.552791 72.321407 2.576879 14.336 11.635341 23.79956 23.113143 35.761231C286.618725 197.609495 308.887912 220.835165 301.944967 265.452308M912.811604 482.450286c-32.948044 0-62.992879 12.603077-85.610901 33.263121l0-81.109802c0-11.995429-9.688615-21.717802-21.62778-21.717802l-778.532571 0c-11.939165 0-21.616527 9.711121-21.616527 21.717802l0 238.321934c0 66.244923 11.736615 125.693187 34.883516 176.724396 18.735824 41.308835 44.909714 77.12633 77.767736 106.428484 56.162462 50.05222 112.459956 63.724308 114.823033 64.286945 1.609143 0.382593 3.285802 0.57389 4.939956 0.57389l324.202901 0c1.339077 0 2.689407-0.12378 3.994725-0.371341 2.689407-0.517626 66.593758-12.98567 130.779429-61.518769 37.899253-28.638242 68.101626-63.960615 89.796923-104.943121 26.927824-50.896176 40.588659-110.456967 40.588659-177.050725l0-58.964396c0.888967-2.385582 1.384088-4.962462 1.384088-7.674374 0-46.631385 37.775473-84.575648 84.226813-84.575648 46.428835 0 75.157099 38.506901 68.03411 84.575648-23.439473 151.608264-162.928527 203.944791-209.357363 203.944791-11.939165 0-21.616527 9.711121-21.616527 21.695297 0 11.984176 9.677363 21.706549 21.616527 21.706549 70.262154 0 242.710505-83.787956 252.579165-247.335385C1028.321055 539.985582 983.062505 482.450286 912.811604 482.450286M783.945143 677.044044c0 58.975648-11.781626 111.357187-35.007297 155.693011-18.477011 35.26611-44.313319 65.738549-76.754989 90.56211-50.704879 38.799473-102.411253 51.931429-112.414945 54.204484l-319.139165 0c-9.778637-2.779429-51.571341-16.226462-93.825407-53.900659-28.334418-25.262418-50.918681-56.207473-67.145143-91.957451-20.558769-45.337319-30.978813-98.731604-30.978813-158.72L48.679385 456.321407l735.265758 0L783.945143 677.044044z" /></svg>