<?xml version="1.0" standalone="no"?><!DOCTYPE svg PUBLIC "-//W3C//DTD SVG 1.1//EN" "http://www.w3.org/Graphics/SVG/1.1/DTD/svg11.dtd"><svg class="icon" width="32px" height="32.00px" viewBox="0 0 1024 1024" version="1.1" xmlns="http://www.w3.org/2000/svg"><path fill="#ff5d63" d="M771.077082 907.910005l-68.488861 0c-83.870176 0-154.817018-55.211463-176.965457-132.998083l-28.52466 0c-22.13616 77.786621-93.069699 132.998083-176.951131 132.998083l-68.500117 0c-101.540627 0-184.14395-82.616626-184.14395-184.15623l0-68.489884c0-101.539604 82.604346-184.14395 184.14395-184.14395l68.500117 0c79.282694 0 149.20623 51.877531 174.189228 124.96513l34.07405 0c24.970718-73.087599 94.895277-124.96513 174.177971-124.96513l68.488861 0c101.538581 0 184.142927 82.604346 184.142927 184.14395l0 68.489884C955.220009 825.292356 872.614639 907.910005 771.077082 907.910005zM466.213699 700.144054l90.294492 0c19.300578 0 35.424814 14.688537 37.225833 33.915437 5.269004 56.490595 52.071959 99.081623 108.854197 99.081623l68.488861 0c60.310597 0 109.376083-49.065486 109.376083-109.387339l0-68.489884c0-60.310597-49.065486-109.376083-109.376083-109.376083l-68.488861 0c-53.655014 0-100.06809 40.024575-107.989503 93.095281-2.726088 18.313088-18.448164 31.869848-36.97103 31.869848l-92.50995 0c-18.509563 0-34.243919-13.555737-36.968983-31.869848-7.922437-53.069683-54.360072-93.095281-108.001783-93.095281l-68.500117 0c-60.310597 0-109.377106 49.065486-109.377106 109.376083l0 68.489884c0 60.321854 49.066509 109.387339 109.377106 109.387339l68.500117 0c56.793494 0 103.58417-42.591027 108.840894-99.081623C430.776605 714.844871 446.913121 700.144054 466.213699 700.144054zM319.818491 801.428855l-66.919109 0c-43.261293 0-78.45484-35.19457-78.45484-78.455863l0-66.918086c0-43.26027 35.193547-78.45484 78.45484-78.45484l66.919109 0c43.261293 0 78.453816 35.19457 78.453816 78.45484l0 66.918086C398.272307 766.234285 363.079784 801.428855 319.818491 801.428855zM252.899382 652.367935c-2.032286 0-3.687996 1.654686-3.687996 3.687996l0 66.918086c0 2.033309 1.655709 3.687996 3.687996 3.687996l66.919109 0c2.032286 0 3.687996-1.654686 3.687996-3.687996l0-66.918086c0-2.032286-1.655709-3.687996-3.687996-3.687996L252.899382 652.367935zM767.181355 801.428855 700.252013 801.428855c-43.250036 0-78.443583-35.19457-78.443583-78.455863l0-66.918086c0-43.26027 35.19457-78.45484 78.443583-78.45484l66.929342 0c43.249013 0 78.44256 35.19457 78.44256 78.45484l0 66.918086C845.623915 766.234285 810.430368 801.428855 767.181355 801.428855zM700.252013 652.367935c-2.033309 0-3.675716 1.654686-3.675716 3.687996l0 66.918086c0 2.033309 1.641383 3.687996 3.675716 3.687996l66.929342 0c2.032286 0 3.675716-1.654686 3.675716-3.687996l0-66.918086c0-2.032286-1.642406-3.687996-3.675716-3.687996L700.252013 652.367935zM104.886327 696.51848c-20.651342 0-37.383422-16.73208-37.383422-37.382399L67.502905 238.774175c0-73.947176 60.164265-134.104277 134.104277-134.104277 20.651342 0 37.383422 16.738219 37.383422 37.383422 0 20.644179-16.73208 37.383422-37.383422 37.383422-32.722262 0-59.33641 26.620287-59.33641 59.337433L142.270772 659.135058C142.269749 679.786401 125.536646 696.51848 104.886327 696.51848zM917.835563 696.51848c-20.651342 0-37.382399-16.73208-37.382399-37.382399L880.453165 238.774175c0-32.717146-26.614148-59.337433-59.33641-59.337433-20.651342 0-37.384445-16.739243-37.384445-37.383422 0-20.645203 16.734126-37.383422 37.384445-37.383422 73.940013 0 134.104277 60.158125 134.104277 134.104277L955.221032 659.135058C955.220009 679.786401 938.486906 696.51848 917.835563 696.51848z" /></svg>