<?xml version="1.0" standalone="no"?><!DOCTYPE svg PUBLIC "-//W3C//DTD SVG 1.1//EN" "http://www.w3.org/Graphics/SVG/1.1/DTD/svg11.dtd"><svg class="icon" width="32px" height="32.00px" viewBox="0 0 1024 1024" version="1.1" xmlns="http://www.w3.org/2000/svg"><path fill="#ffffff" d="M512 1024C229.694578 1024 0 794.305422 0 512 0 229.694578 229.694578 0 512 0 794.373689 0 1024 229.694578 1024 512 1024 794.305422 794.373689 1024 512 1024ZM512 90.2144C279.438222 90.2144 90.2144 279.438222 90.2144 512 90.2144 744.493511 279.438222 933.728711 512 933.728711 744.630044 933.728711 933.7856 744.561778 933.7856 512 933.7856 279.438222 744.561778 90.2144 512 90.2144ZM483.931022 743.241956C475.693511 754.4832 462.711467 761.252978 448.8192 761.594311L447.840711 761.594311C434.289778 761.594311 421.512533 755.450311 412.933689 744.914489L262.257778 557.943467C246.692978 538.669511 249.764978 510.464 269.038933 494.8992 288.301511 479.323022 316.575289 482.395022 332.0832 501.668978L446.236444 643.254044 690.801778 310.647467C705.467733 290.679467 733.604978 286.4128 753.504711 301.078756 773.404444 315.744711 777.728 343.881956 762.993778 363.781689L483.931022 743.241956Z" /></svg>