<?xml version="1.0" standalone="no"?><!DOCTYPE svg PUBLIC "-//W3C//DTD SVG 1.1//EN" "http://www.w3.org/Graphics/SVG/1.1/DTD/svg11.dtd"><svg class="icon" width="32px" height="32.00px" viewBox="0 0 1024 1024" version="1.1" xmlns="http://www.w3.org/2000/svg"><path fill="#ff5d63" d="M893.456828 709.055005M491.889987 337.939709M568.154951 338.993714M944.203606 498.942613 944.203606 378.913912l5.755074 0c0.12996 0 0.387833-1.682315 0.37146-2.603291-0.132006-7.151887-4.759397-13.419637-11.549034-15.688307L520.65717 221.091444c-3.464915-1.155313-7.226588-1.146103-10.69048 0.008186L91.842755 360.653013c-6.788613 2.26867-11.417027 8.573259-11.549034 15.725146-0.12382 7.160073 0.789992 13.620206 7.488555 16.127306l121.68748 46.834678L209.469756 657.80169c0 3.186576 4.41659 6.132674 5.950526 8.677637 12.165064 62.73788 180.653453 103.878882 292.384164 103.878882 63.137992 0 135.229914-11.144828 191.372585-29.803793 46.037523-15.301498 97.581456-41.847084 97.581456-81.376379 0-2.604314 3.158946-5.04183-5.027503-7.245008l0-207.014844 118.703519-44.245713 0 96.907097c-17.396205 6.29845-27.780717 23.567765-27.780717 43.878346 0 25.613354 22.61916 46.458101 48.232514 46.458101s43.787272-20.844747 43.787272-46.458101C974.673571 522.483772 960.576505 506.148735 944.203606 498.942613zM762.644527 663.064554c-10.104125 29.316699-127.867226 73.507154-254.979252 73.507154-127.777175 0-260.183787-49.650817-260.183787-77.391624 0-2.604314 3.943822-5.04183-4.242627-7.245008l0-199.954031 262.658142 96.966449c1.913583 0.717338 5.664 1.072425 7.668657 1.072425 2.004657 0 1.119497-0.355087 3.03308-1.072425l241.36314-91.38636 0 200.240557C757.961878 659.651828 762.096035 661.398612 762.644527 663.064554zM515.312442 515.086291 147.827837 377.591801 515.312442 254.946506l367.483582 122.646318L515.312442 515.086291zM932.660712 562.575886c-11.647271 0-21.116947-9.469676-21.116947-21.116947s9.469676-21.116947 21.116947-21.116947c11.647271 0 21.116947 9.469676 21.116947 21.116947S944.309006 562.575886 932.660712 562.575886z" /></svg>