<?xml version="1.0" standalone="no"?><!DOCTYPE svg PUBLIC "-//W3C//DTD SVG 1.1//EN" "http://www.w3.org/Graphics/SVG/1.1/DTD/svg11.dtd"><svg class="icon" width="16px" height="16.00px" viewBox="0 0 1024 1024" version="1.1" xmlns="http://www.w3.org/2000/svg"><path fill="#ff817f" d="M868.288 471.511c-53.98 61.562-149.457 163.19-149.457 163.19s15.588 111.594 24.33 187.825c3.845 38.836-26.065 55.65-59.926 40.523-64.457-30.321-162.57-77.28-184.588-87.829-22.432 10.427-121.493 56.586-186.613 86.843-34.311 15.073-64.595-1.687-60.695-40.473 8.877-76.112 24.649-187.582 24.649-187.582s-96.585-101.457-151.249-162.9c-19.329-22.317-6.844-54.085 31.174-59.945 77.627-13.745 197.962-35.601 197.962-35.601s65.828-113.567 107.485-183.124c22.907-42.329 38.735-37.405 41.445-36.18 7.084 2.263 18.222 10.543 32.809 36.23 41.184 69.686 106.222 183.361 106.222 183.361s118.915 21.919 195.643 35.654c37.629 5.86 49.926 37.682 30.805 60.009v0z" /></svg>