<?xml version="1.0" standalone="no"?><!DOCTYPE svg PUBLIC "-//W3C//DTD SVG 1.1//EN" "http://www.w3.org/Graphics/SVG/1.1/DTD/svg11.dtd"><svg class="icon" width="32px" height="32.00px" viewBox="0 0 1024 1024" version="1.1" xmlns="http://www.w3.org/2000/svg"><path fill="#ff5d63" d="M849.106 205.735h-168.661v-55.688c0-30.765-25.159-55.686-56.221-55.686h-224.882c-31.062 0-56.221 24.921-56.221 55.686v55.688h-168.661c-62.095 0-112.441 49.866-112.441 111.368v501.166c0 61.505 50.346 111.37 112.441 111.37h674.646c62.095 0 112.441-49.866 112.441-111.37v-501.166c0-61.503-50.346-111.368-112.441-111.368zM399.342 177.89c0-15.368 12.593-27.844 28.11-27.844h168.662c15.517 0 28.11 12.474 28.11 27.844v27.844h-224.882v-27.844zM905.326 818.267c0 30.767-25.159 55.688-56.221 55.688h-674.646c-31.062 0-56.221-24.921-56.221-55.688v-306.267h285.067c-2.332 8.966-3.964 18.18-3.964 27.844 0 61.503 50.346 111.368 112.441 111.368 62.095 0 112.441-49.866 112.441-111.368 0-9.663-1.63-18.877-3.964-27.844h285.067v306.267zM455.562 539.844c0-10.19 2.979-19.628 7.786-27.844h96.868c4.808 8.216 7.787 17.653 7.787 27.844 0 30.765-25.159 55.685-56.221 55.685-31.061 0.001-56.22-24.92-56.22-55.685zM905.326 456.317h-787.087v-139.215c0-30.765 25.159-55.685 56.221-55.685h674.646c31.062 0 56.221 24.921 56.221 55.685v139.215z" /></svg>