<?xml version="1.0" standalone="no"?><!DOCTYPE svg PUBLIC "-//W3C//DTD SVG 1.1//EN" "http://www.w3.org/Graphics/SVG/1.1/DTD/svg11.dtd"><svg class="icon" width="32px" height="32.00px" viewBox="0 0 1024 1024" version="1.1" xmlns="http://www.w3.org/2000/svg"><path fill="#e3e3e3" d="M740.38272 514.048c2.69312-5.62176 7.46496-13.32224 14.27456-23.05024a292.05504 292.05504 0 0 0 17.69472-29.48096c4.63872-8.79616 8.9088-17.28512 12.73856-25.26208l2.48832 3.91168a220.2624 220.2624 0 0 0 20.70528 27.15648c5.50912 6.144 11.17184 10.71104 16.93696 13.66016 1.01376 3.87072 2.048 7.23968 3.18464 10.24 0.9216 2.304 1.8432 4.84352 2.75456 7.60832l4.34176 13.0048H969.0112V180.92032h-19.02592c-35.072 0-66.90816 2.47808-94.63808 7.3728-27.8016 4.90496-53.03296 11.58144-75.008 19.8144-22.21056 8.33536-41.74848 17.9712-58.0608 28.672-15.95392 10.45504-29.99296 21.12512-42.09664 32.1024-22.82496 21.8624-40.09984 46.4896-51.53792 73.37984a611.97312 611.97312 0 0 0-28.45696-5.2224 889.06752 889.06752 0 0 0-51.53792-6.05184 760.76032 760.76032 0 0 0-68.6592-2.83648c-35.40992 0-66.79552 0.79872-93.25568 2.39616-27.04384 1.60768-50.7392 4.51584-70.44096 8.62208-20.30592 4.21888-37.65248 9.75872-51.57888 16.4352-11.69408 5.60128-21.83168 12.24704-30.26944 19.82464a89.72288 89.72288 0 0 0-33.7408 7.48544 100.32128 100.32128 0 0 0-29.1328 19.43552 90.32704 90.32704 0 0 0-20.43904 29.83936 93.60384 93.60384 0 0 0-7.44448 37.00736c0 20.40832 6.05184 38.8096 17.9712 54.71232a95.83616 95.83616 0 0 0 29.36832 26.09152 1446.1952 1446.1952 0 0 1-5.376 21.03296 3016.68352 3016.68352 0 0 1-12.91264 47.31904 8791.13216 8791.13216 0 0 1-14.5408 51.06688 1891.9424 1891.9424 0 0 1-12.87168 41.64608 500.8384 500.8384 0 0 1-25.1904-12.51328 90.86976 90.86976 0 0 0-17.8176-3.28704c-10.76224-0.83968-20.48-0.16384-29.1328 2.01728-8.6528 2.18112-15.872 5.53984-21.64736 10.05568-5.77536 4.53632-9.18528 9.56416-10.22976 15.09376-1.05472 5.5296 0.26624 11.0592 3.9424 16.59904 3.67616 5.53984 10.76224 10.48576 21.248 14.848 26.76736 16.42496 60.6208 31.0272 101.56032 43.776 35.16416 11.06944 79.77984 21.13536 133.8368 30.18752 54.05696 9.0624 118.87616 13.57824 194.4576 13.57824 58.78784 0 110.87872-2.77504 156.28288-8.2944a1181.4912 1181.4912 0 0 0 70.33856-10.5984l1.0752 2.12992 12.91264-4.8128a747.14112 747.14112 0 0 0 34.16064-7.59808c33.5872-8.38656 61.40928-17.69472 83.456-27.92448 22.03648-10.22976 39.10656-20.20352 51.16928-29.94176 12.07296-9.40032 17.9712-18.62656 17.7152-27.66848-0.26624-9.0624-4.46464-16.35328-12.5952-21.89312-8.13056-5.53984-19.02592-8.2944-32.67584-8.2944a72.0896 72.0896 0 0 0-18.21696 2.4064 513.77152 513.77152 0 0 1-36.9152 17.79712 2458.25536 2458.25536 0 0 0-38.74816-110.6944c-6.11328-15.85152-11.33568-27.7504-15.9232-36.34176-4.79232-8.99072-9.04192-15.74912-12.94336-20.6336-3.09248-3.88096-6.4512-8.1408-10.0864-12.8l-0.78848-0.95232c-4.11648-4.61824-6.15424-7.66976-7.13728-9.39008-0.09216-0.1536-0.36864-0.63488-0.28672-2.11968 0-0.78848 0.36864-3.77856 3.23584-9.74848z m-227.5328 264.69376c-11.8784 0.3584-23.76704 0.4096-35.64544 0.17408-57.05728-0.72704-111.68768-6.23616-162.51904-15.60576 1.64864-2.73408 3.26656-5.35552 4.8128-7.71072 10.47552-15.94368 24.576-31.36512 41.9328-45.824 17.28512-14.40768 38.63552-26.75712 63.40608-36.72064 24.38144-9.79968 54.31296-14.76608 88.95488-14.76608 28.69248 0 54.05696 4.75136 75.40736 14.1312 21.92384 9.6256 41.15456 21.78048 57.15968 36.11648 16.19968 14.52032 29.9008 30.52544 40.704 47.57504l1.66912 2.69312c-54.36416 11.5712-113.63328 18.57536-175.88224 19.93728z m191.50848-233.96352c2.7136 4.73088 6.41024 9.74848 11.3152 15.3088 3.584 4.608 6.93248 8.83712 10.02496 12.72832 1.65888 2.05824 4.56704 6.30784 9.08288 14.78656 3.80928 7.13728 8.51968 17.94048 13.99808 32.13312a2382.47936 2382.47936 0 0 1 22.5792 61.92128 1843.2 1843.2 0 0 1 16.20992 49.22368 708.72064 708.72064 0 0 1-60.1088 18.74944 364.05248 364.05248 0 0 0-8.26368-13.8752c-12.68736-20.0192-28.65152-38.69696-47.4624-55.56224-19.00544-17.00864-41.6256-31.35488-67.2256-42.5984-26.20416-11.52-56.71936-17.3568-90.70592-17.3568-39.5264 0-74.22976 5.888-103.14752 17.5104-28.4672 11.44832-53.21728 25.83552-73.58464 42.79296-20.23424 16.86528-36.84352 35.08224-49.38752 54.1696-3.96288 6.05184-8.22272 13.312-12.21632 20.4288a751.14496 751.14496 0 0 1-64.8192-18.21696 478.90432 478.90432 0 0 1-27.77088-18.50368c3.62496-11.39712 8.77568-27.79136 11.84768-38.46144 5.00736-17.3568 9.87136-34.44736 14.60224-51.3024 4.75136-16.896 9.12384-32.8704 13.08672-47.93344 4.05504-15.44192 7.07584-27.648 9.22624-37.3248l3.6352-16.39424-15.8208-5.64224a57.32352 57.32352 0 0 1-27.392-20.2752c-6.97344-9.29792-10.37312-19.72224-10.37312-31.87712 0-7.95648 1.42336-15.16544 4.37248-22.02624 2.72384-6.5536 6.7584-12.48256 11.85792-17.41824a62.09536 62.09536 0 0 1 18.10432-12.05248 52.18304 52.18304 0 0 1 21.44256-4.29056h12.9536l5.64224-6.00064c6.22592-6.63552 14.6432-12.52352 25.04704-17.5104 11.1616-5.35552 25.6-9.8816 42.89536-13.48608 17.89952-3.72736 39.75168-6.38976 64.96256-7.90528 25.71264-1.536 56.33024-2.33472 90.97216-2.33472 23.93088 0 45.86496 0.89088 65.16736 2.67264 19.47648 1.792 36.0448 3.72736 49.11104 5.74464 15.68768 2.53952 29.72672 5.34528 41.728 8.33536l17.17248 4.3008 5.51936-16.82432c8.94976-27.29984 25.02656-52.224 47.44192-73.69728 10.26048-9.2672 22.71232-18.72896 37.03808-28.1088 13.9776-9.15456 30.99648-17.52064 50.57536-24.86272 19.80416-7.424 42.77248-13.47584 68.25984-17.9712 20.52096-3.62496 43.66336-5.80608 69.00736-6.52288v254.5664h-68.27008a146.432 146.432 0 0 1-2.70336-11.49952l-3.072-15.28832h-14.61248c-0.75776-0.43008-2.67264-1.72032-5.71392-5.08928a180.23424 180.23424 0 0 1-17.1008-22.46656 350.67904 350.67904 0 0 1-19.4048-34.3552l-18.944-37.888-15.72864 39.3216a521.7792 521.7792 0 0 1-12.93312 29.67552 685.24032 685.24032 0 0 1-13.79328 27.57632 257.04448 257.04448 0 0 1-15.28832 25.51808c-8.00768 11.43808-13.66016 20.67456-17.31584 28.2624-4.28032 8.92928-6.56384 16.81408-6.95296 24.07424a41.1136 41.1136 0 0 0 5.23264 23.12192z"  /><path fill="#e3e3e3" d="M853.77024 338.76992c8.2944 0 15.80032-3.11296 21.69856-9.02144a30.09536 30.09536 0 0 0 9.03168-21.69856c0-8.2944-3.11296-15.81056-9.0112-21.69856a30.0544 30.0544 0 0 0-21.71904-9.02144 30.12608 30.12608 0 0 0-21.71904 9.02144 30.1056 30.1056 0 0 0-9.0112 21.69856 30.12608 30.12608 0 0 0 9.02144 21.71904 30.22848 30.22848 0 0 0 21.7088 9.00096z"  /></svg>