<?xml version="1.0" standalone="no"?><!DOCTYPE svg PUBLIC "-//W3C//DTD SVG 1.1//EN" "http://www.w3.org/Graphics/SVG/1.1/DTD/svg11.dtd"><svg class="icon" width="32px" height="32.00px" viewBox="0 0 1024 1024" version="1.1" xmlns="http://www.w3.org/2000/svg"><path fill="#8a8a8a" d="M915.456386 779.735576c14.67844 24.442984 13.507133 50.753006-2.123679 74.604863-30.243571 46.134673-78.023913 102.144575-133.155638 117.685379-10.417703 2.943472-21.459374 4.043017-32.260215 4.043017-49.742251 0-108.200587-22.369174-149.555158-49.835907-19.172709-12.735992-37.689826-27.567687-55.348228-42.314241-23.47845-19.605716-46.279414-40.137044-68.545202-61.107461-58.831743-55.422423-114.852591-114.766233-167.046925-176.452658-43.878416-51.854983-85.741406-105.691337-121.604333-163.463673-38.983981-62.801782-74.849341-136.901876-84.6224-210.913179-0.155688-1.194417-0.336918-2.385186-0.510851-3.571089-2.678317-18.031809-3.546763-34.068869-0.779655-52.274611 4.578194-30.119507 17.986806-57.34906 36.413916-81.396743 3.485947-4.549003 7.437741-8.941102 11.360344-13.114264 5.851672-6.227512 11.998907-12.209329 18.343185-17.933288 15.904482-14.351253 33.627348-27.619988 52.521522-37.764021 19.270014-10.347157 40.953189-17.994104 63.043828-17.994104 14.34882 0 28.147867 3.336341 40.720873 10.259583 10.253501 5.649764 22.006713 17.239991 29.697447 25.886745 15.507964 17.437033 27.973935 37.745777 36.894359 59.290292 1.841495 4.451698 3.71583 8.892449 5.591381 13.331984 17.316619 41.062657 35.737647 85.635587 38.540028 130.620846 0.86723 13.92676-0.301645 26.200554-6.765121 38.844106-9.421544 18.428327-27.627286 31.953704-45.195681 41.996783-10.18782 5.823697-26.012025 15.78285-28.528573 28.347342-1.635938 8.171177 2.203955 17.035651 6.101016 24.009978 16.414116 29.375125 34.821765 57.812474 54.286389 85.247583 28.775484 40.559104 60.229284 79.3205 93.412679 116.345005 9.443438 10.539334 19.685992 20.52403 30.297089 29.883543 12.905059 11.382238 26.936422 22.409312 41.583238 31.468396 8.634591 5.340821 22.333901 12.962225 32.601998 13.879324 0.276103 0.024326 0.552205 0.037706 0.829524 0.037706 10.388512 0 26.071625-12.337042 33.364625-18.883227 3.856922-3.460405 7.618972-7.020547 11.381021-10.583121 13.743097-13.020608 28.721966-28.130839 49.019763-28.130839 8.845013 0 17.111062 2.843735 24.790849 7.069199l0.142308 0.077844 0.609372 0.370975 158.487745 104.228115 0.068113 0.047436C899.332968 758.345532 909.396725 769.643844 915.456386 779.735576L915.456386 779.735576zM875.090675 772.795306l-157.624165-103.658882c-3.634337-1.955828-7.880478-3.672043-12.054858-3.672043-0.748031 0-1.492413 0.05595-2.231931 0.164202-9.714675 1.436463-22.310791 14.429096-29.192678 20.94609-3.929901 3.724344-7.862234 7.437741-11.891872 11.05505-12.968307 11.641312-32.333193 25.425763-50.444063 25.425763-1.028999 0-2.060431-0.04622-3.08943-0.136227-38.497457-3.433646-95.909765-55.339714-121.27228-83.644486-33.862096-37.782266-65.948378-77.341562-95.307691-118.733839-19.969393-28.153949-38.845322-57.332032-55.688795-87.472216-9.30113-16.645215-13.796615-35.26207-5.011201-53.134543 7.508287-15.272 22.708525-25.859986 37.096267-34.087114 12.619226-7.21394 27.600527-17.510012 34.630804-30.697255 4.55995-8.553098 5.044041-16.771711 4.455347-26.237043-2.578579-41.422685-20.61647-84.368191-36.569604-122.212489-1.895012-4.494269-3.792457-8.987321-5.654629-13.492537-7.443823-17.978292-17.8372-35.075974-30.468589-49.888209-6.105881-7.160422-16.450605-18.02816-24.796931-22.62095-8.7769-4.836052-18.380891-7.087444-28.393562-7.087444-21.10786 0-43.053758 9.874012-60.753514 20.693098-13.802696 8.436333-26.888985 18.523199-38.869648 29.382423-8.852311 8.022787-18.052487 17.198636-25.333324 26.698025-15.762173 20.567818-27.403485 43.85409-31.334602 69.630151-2.376672 15.585808-1.565392 29.184164 0.722489 44.60577 0.199475 1.329428 0.395301 2.657639 0.571666 3.991932 6.362522 48.197536 24.837069 96.088563 46.568896 139.328416 23.628056 47.011633 52.723429 91.83634 83.896262 134.177339 22.234164 30.199784 45.689503 59.01419 69.898956 87.621822 50.425818 59.59437 104.635579 116.960458 161.286477 170.67883 22.839886 21.657632 46.240492 42.87496 70.372101 63.087615 17.169445 14.38166 35.224364 28.908062 53.892304 41.307135 36.652313 24.346896 91.381439 45.567872 135.410678 45.567872 8.427818 0 17.194987-0.783304 25.329675-3.077267 48.397011-13.649441 92.209747-66.681814 118.685187-107.070634 9.998076-15.253755 11.211954-30.846861 2.021509-46.696609C889.631672 786.096882 882.224339 777.806507 875.090675 772.795306z" /></svg>