<?xml version="1.0" standalone="no"?><!DOCTYPE svg PUBLIC "-//W3C//DTD SVG 1.1//EN" "http://www.w3.org/Graphics/SVG/1.1/DTD/svg11.dtd"><svg class="icon" width="16px" height="16.00px" viewBox="0 0 1024 1024" version="1.1" xmlns="http://www.w3.org/2000/svg"><path d="M519.8 340.2h402.8c-9.7-23.1-21.2-45.2-34.5-66.1H519.8v66.1zM832.8 820.4H191.2c24.1 25 51 47.2 80.3 66.1h480.9c29.4-18.9 56.3-41.1 80.4-66.1zM519.8 203.6h313c-24.1-25-51-47.2-80.3-66.1H519.8v66.1zM519.8 476.7h435.9c-1.8-22.5-5.2-44.6-10.2-66.1H519.8v66.1zM955.6 547.3H68.4c1.8 22.5 5.2 44.6 10.2 66.1h866.8c5-21.5 8.5-43.6 10.2-66.1zM922.6 683.8H101.4c9.7 23.1 21.2 45.2 34.5 66.1h752.2c13.3-20.9 24.8-43 34.5-66.1z" fill="#FFFFFF" /><path d="M752.5 137.5C685.1 94.2 605.4 68.5 519.8 67.1v70.4h232.7zM519.8 274.1h368.4c-16.1-25.3-34.6-49-55.3-70.5h-313V274.1zM519.8 410.7h425.7c-5.7-24.3-13.3-47.9-22.8-70.5H519.8v70.5zM519.8 547.3h435.9c0.9-11.6 1.4-23.4 1.4-35.3 0-11.9-0.5-23.6-1.4-35.3H519.8v70.6zM945.4 613.3H78.6c5.7 24.3 13.3 47.9 22.8 70.5h821.2c9.5-22.6 17.1-46.1 22.8-70.5zM888.1 749.9H135.9c16.1 25.3 34.6 49 55.3 70.5h641.6c20.7-21.5 39.2-45.1 55.3-70.5zM752.5 886.5h-481c69.1 44.4 151.2 70.3 239.3 70.5h2.2c88.3-0.2 170.4-26.1 239.5-70.5z" fill="#EB0000" /><path d="M519.8 476.7V67.1c-2.2 0-4.4-0.1-6.6-0.1H511c-56.3 0.1-110.2 10.7-159.7 30l3.9 12.1H375l-16.1 11.7 6.1 18.9-16.1-11.7-16.1 11.7 6.1-18.9-16-11.7c-82.2 38.7-150.7 101.8-196.1 180l4 12.3h19.9L134.6 313.1l6.2 18.9-16.1-11.7-16.1 11.7 6.1-18.9-0.6-0.4c-19.8 39.4-33.9 82.1-41.2 127.1l1.9 5.8h19.9l-16.1 11.7 6.2 18.9-15.3-11.1c-1.6 15.4-2.5 31.1-2.5 46.9 0 11.9 0.5 23.6 1.4 35.3h451.4v-70.6z m-379 47.5l-16.1-11.7-16.1 11.7 6.1-18.9-16.1-11.7h19.9l6.1-18.9 6.2 18.9h19.9l-16.1 11.7 6.2 18.9zM134.6 409.1l6.2 18.9-16.1-11.7-16.2 11.8 6.1-18.9-16.1-11.7h19.9l6.1-18.9 6.2 18.9h19.9l-16 11.6z m56.1 48.1l6.1 18.9-16.1-11.7-16.1 11.7 6.1-18.9-16.1-11.7h19.9l6.2-18.9 6.2 18.9h19.9l-16.1 11.7z m0-96.1l6.1 18.9-16.1-11.7-16.1 11.7 6.1-18.9-16.1-11.7h19.9l6.2-18.9 6.2 18.9h19.9L190.7 361.1z m0-96.2l6.1 18.9-16.1-11.7-16.1 11.7 6.1-18.9-16.1-11.7h19.9l6.2-18.9 6.2 18.9h19.9l-16.1 11.7z m62.2 259.3l-16.1-11.7-16.1 11.7 6.2-18.9-16.1-11.7h19.9l6.1-18.9 6.1 18.9h19.9l-16.1 11.7 6.2 18.9zM246.7 409.1l6.2 18.9-16.1-11.7-16.1 11.8 6.2-18.9-16.1-11.7h19.9l6.1-18.9 6.1 18.9h19.9L246.7 409.1z m0-96.1l6.2 18.9-16.1-11.7-16.1 11.7 6.2-18.9-16.1-11.7h19.9l6.1-18.9 6.1 18.9h19.9l-16.1 11.7z m0-96.1l6.2 18.9-16.1-11.7-16.1 11.7 6.2-18.9-16.1-11.7h19.9l6.1-18.9 6.1 18.9h19.9l-16.1 11.7z m56.1 240.3L309 476.1l-16.1-11.7-16.2 11.7 6.2-18.9-16.1-11.7h19.9l6.1-18.9 6.2 18.9h19.9l-16.1 11.7z m0-96.1l6.2 18.9-16.1-11.7-16.1 11.7L283 361.1l-16.1-11.7h19.9l6.1-18.9 6.2 18.9H319L302.8 361.1z m0-96.2l6.2 18.9-16.1-11.7-16.1 11.7 6.2-18.9-16.1-11.7h19.9l6.1-18.9 6.2 18.9H319l-16.2 11.7z m0-96.1l6.2 18.9-16.1-11.7-16.1 11.7 6.2-18.9L266.8 157.1h19.9l6.1-18.9L299 157.1h19.9l-16.1 11.7zM365 524.2l-16.1-11.7-16.1 11.7 6.1-18.9-16.1-11.7h19.9l6.2-18.9 6.2 18.9H375l-16.1 11.7 6.1 18.9zM358.9 409.1l6.1 19-16.1-11.7-16.1 11.7 6.1-18.9-16.1-11.7h19.9l6.2-18.9 6.2 18.9H375L358.9 409.1z m0-96.1l6.1 18.9-16.1-11.7-16.1 11.7 6.1-18.9-16.1-11.7h19.9l6.2-18.9 6.2 18.9H375l-16.1 11.7z m0-96.1l6.1 18.9-16.1-11.7-16.1 11.7 6.1-18.9-16.1-11.7h19.9l6.2-18.9 6.2 18.9H375l-16.1 11.7z m56 240.3L421 476.1l-16-11.7-16.1 11.7 6.2-18.9-16.1-11.7h19.9l6.2-18.9 6.1 18.9h19.9l-16.2 11.7z m0-96.1l6.1 18.9-16-11.7-16.1 11.7L395 361.1l-16.1-11.7h19.9l6.2-18.9 6.1 18.9H431L414.9 361.1z m0-96.2l6.1 18.9-16-11.6-16.1 11.7 6.2-18.9-16.1-11.7h19.9l6.2-18.9 6.1 18.9h19.9l-16.2 11.6z m0-96.1l6.1 18.9-16-11.7-16.1 11.7 6.2-18.9L378.9 157.1h19.9l6.2-18.9 6.1 18.9H431l-16.1 11.7z m62.3 355.4L461 512.5l-16.1 11.7 6.1-18.9-16-11.8h19.9l6.1-18.9 6.2 18.9h19.9L471 505.3l6.2 18.9zM471 409.1l6.2 18.9-16.2-11.6-16.1 11.7 6.1-18.9-16-11.8h19.9l6.1-18.9 6.2 18.9h19.9L471 409.1z m0-96.1l6.2 18.9-16.2-11.7-16.1 11.7 6.1-18.9-16-11.7h19.9l6.1-18.9 6.2 18.9h19.9L471 313z m0-96.1l6.2 18.9L461 224.1l-16.1 11.7 6.1-18.9-16-11.7h19.9l6.1-18.9 6.2 18.9h19.9L471 216.9z m0-96.1l6.2 18.9L461 128l-16.1 11.7 6.1-18.9L435 109.1h19.9L461 90.1l6.2 18.9h19.9L471 120.8z" fill="#233CAF" /><path d="M346 99c-7.8 3.1-15.5 6.5-23.1 10.1h19.8L346 99z" fill="#233CAF" /><path d="M332.8 139.7l16.1-11.7L365 139.7l-6.1-18.9L375 109.1h-19.9l-3.9-12.1c-1.7 0.7-3.4 1.3-5.1 2L342.8 109.1H323l16.1 11.7-6.3 18.9zM461 90.1l-6.1 19H435l16.1 11.7-6.2 18.9L461 128l16.2 11.7-6.2-18.9L487.1 109.1h-19.9zM299 157.1l-6.2-18.9-6.1 18.9h-19.9l16.1 11.7-6.2 19 16.1-11.8L309 187.8l-6.2-19L318.9 157.1zM411.1 157.1L405 138.2 398.8 157.1h-19.9L395 168.8l-6.1 19L405 176l16.1 11.8-6.2-19L431.1 157.1zM236.8 186.2l-6.2 19h-19.9l16.1 11.7-6.1 18.9 16.1-11.7 16.1 11.7-6.2-18.9 16.1-11.7h-19.9zM348.9 186.2l-6.1 19h-19.9l16 11.7-6.1 18.9 16.1-11.7 16.1 11.7-6.1-18.9 16.1-11.7h-19.9zM461 186.2l-6.1 19H435l16.1 11.7-6.2 18.9L461 224.1l16.2 11.7-6.2-18.9 16.1-11.7h-19.9zM186.9 253.2l-6.2-18.9-6.2 18.9h-19.9l16.1 11.7-6.1 19 16.1-11.7 16.1 11.7-6.1-19 16.1-11.7zM299 253.2l-6.2-18.9-6.1 18.9h-19.9l16.1 11.7-6.2 19 16.1-11.7 16.2 11.7-6.2-19 16.1-11.7zM411.1 253.2l-6.1-18.9-6.2 18.9h-19.9l16.1 11.7-6.1 19 16.1-11.7 16.1 11.7-6.2-19 16.2-11.7zM108.5 331.9l16.1-11.7 16.1 11.7-6.2-18.9 16.1-11.7h-19.9l-4-12.3c-4.5 7.7-8.7 15.6-12.7 23.5l0.6 0.4-6.1 19zM236.8 282.3l-6.2 19h-19.9l16.1 11.7-6.1 18.9 16.1-11.7 16.1 11.7-6.2-18.9 16.1-11.7h-19.9zM348.9 282.3l-6.1 19h-19.9l16 11.7-6.1 18.9 16.1-11.7 16.1 11.7-6.1-18.9 16.1-11.7h-19.9zM461 282.3l-6.1 19H435l16.1 11.7-6.2 18.9 16.1-11.7 16.2 11.7-6.2-18.9 16.1-11.7h-19.9zM186.9 349.4l-6.2-19-6.2 19h-19.9l16.1 11.7-6.1 18.9 16.1-11.7 16.1 11.7-6.1-18.9 16.1-11.7zM299 349.4l-6.2-19-6.1 19h-19.9l16.1 11.7-6.2 18.9 16.1-11.7 16.2 11.7-6.2-18.9 16.1-11.7zM411.1 349.4l-6.1-19-6.2 19h-19.9L395 361.1l-6.1 18.9 16.1-11.7 16.1 11.7-6.2-18.9 16.2-11.7zM124.6 378.5l-6.1 18.9h-19.9l16.1 11.7-6.2 19 16.1-11.7 16.2 11.7-6.2-19 16.1-11.7h-19.9zM236.8 378.5l-6.2 18.9h-19.9l16.1 11.7-6.1 19 16.1-11.7 16.1 11.7-6.2-19 16.1-11.7h-19.9zM348.9 378.5l-6.1 18.9h-19.9l16 11.7-6.1 19 16.1-11.7L365 428.1l-6.1-19 16.1-11.7h-19.9zM461 378.5l-6.1 18.9H435l16.1 11.7-6.2 19 16.1-11.7 16.2 11.7-6.2-19 16.1-11.7h-19.9zM84.7 476.1l-6.2-18.9 16.1-11.7h-19.9l-1.9-5.8c-1.4 8.4-2.5 16.8-3.4 25.3l15.3 11.1zM186.9 445.5l-6.2-19-6.2 19h-19.9l16.1 11.7-6.1 18.9 16.1-11.7 16.1 11.7-6.1-18.9 16.1-11.7zM299 445.5l-6.2-19-6.1 19h-19.9l16.1 11.7-6.2 18.9 16.1-11.7L309 476.1l-6.2-18.9 16.1-11.7zM411.1 445.5l-6.1-19-6.2 19h-19.9l16.1 11.7-6.1 18.9 16.1-11.7 16.1 11.7-6.2-18.9 16.2-11.7zM130.8 493.5l-6.2-18.9-6.1 18.9h-19.9l16.1 11.8-6.2 18.9 16.1-11.7 16.2 11.7-6.2-18.9 16.1-11.8zM242.9 493.5l-6.1-18.9-6.2 18.9h-19.9l16.1 11.8-6.1 18.9 16.1-11.7 16.1 11.7-6.2-18.9 16.1-11.8zM355.1 493.5l-6.2-18.9-6.1 18.9h-19.9l16 11.8-6.1 18.9 16.1-11.7 16.1 11.7-6.1-18.9 16.1-11.8zM467.2 493.5l-6.2-18.9-6.1 18.9H435l16.1 11.8-6.2 18.9 16.1-11.7 16.2 11.7-6.2-18.9 16.1-11.8z" fill="#FFFFFF" /></svg>