<?xml version="1.0" standalone="no"?><!DOCTYPE svg PUBLIC "-//W3C//DTD SVG 1.1//EN" "http://www.w3.org/Graphics/SVG/1.1/DTD/svg11.dtd"><svg class="icon" width="32px" height="32.00px" viewBox="0 0 1024 1024" version="1.1" xmlns="http://www.w3.org/2000/svg"><path fill="#dcdcdc" d="M510.687098 947.955046c-145.688103 0-239.448534-29.355585-286.624996-89.746-35.040051-44.852534-43.100634-106.482173-23.969924-183.194322 37.809117-151.60486 97.389074-322.004785 227.420593-373.019669l-124.08611-175.544085 32.843012-4.579295c12.173251-1.697665 21.494547-5.347798 26.949792-10.561543 13.524015-12.877285 33.734312-20.255323 55.471382-20.255323 21.73707 0 41.947368 7.373944 55.450916 20.22667 8.082072 7.730055 21.3564 12.32163 35.550681 12.32163 14.171768 0 27.465538-4.603855 35.547611-12.308327 13.458523-12.857842 33.664727-20.239973 55.422264-20.239973 21.778003 0 41.996486 7.382131 55.479569 20.247136 5.332449 5.086855 14.498202 8.712429 26.508747 10.487865l32.506345 4.804423L591.552847 301.44247c48.375777 18.312064 91.697445 53.569056 127.793548 104.526635 47.12325 66.527183 82.449827 160.021553 102.164844 270.38308 15.59928 87.397512 6.016017 148.22488-30.157857 191.423751C745.54815 922.477792 656.361899 947.955046 510.687098 947.955046L510.687098 947.955046zM510.678912 308.603567c-126.012995 0-225.851864 128.86188-287.534715 376.186801-16.187681 64.927755-4.230348 123.125225 23.136953 158.156066 38.477336 49.251727 133.809565 82.142835 264.405949 82.142835 132.809795 0 220.888829-27.116591 259.280208-71.233368 32.362059-37.187971 42.426275-89.041966 26.987654-169.225169-20.077268-104.282065-51.891857-204.845435-95.602382-266.556938C653.345192 350.296131 579.263963 308.603567 510.678912 308.603567L510.678912 308.603567zM514.88777 282.938024c19.96982 0.011256 38.183647 2.864234 57.091276 8.903787l101.96223-149.974733c-15.014972 2.094708-31.077809-6.634094-40.424688-16.23066-5.747911-5.900384-21.528316-14.097066-32.855292-14.097066-11.298324 0-21.592784 3.388167-27.539216 9.067516-15.659655 14.927991-38.775118 23.479761-63.430658 23.479761-24.707728 0-44.281529-10.120498-63.429635-23.487947-6.730285-4.699022-16.270569-9.05933-27.572986-9.05933-11.302417 0-21.713534 4.600785-28.643364 9.093099-12.19167 7.902994-25.482371 19.488867-50.577932 21.25407L449.939549 293.937542C471.938586 285.557688 492.565369 282.938024 514.88777 282.938024L514.88777 282.938024zM641.788995 479.08331l-93.632517 158.100808 81.864496 0 0 28.14092-100.284007 0 0 44.51382 100.284007 0 0 28.14092-100.284007 0 0 93.120864-36.839023 0 0-93.120864-99.772354 0 0-28.14092 99.772354 0 0-44.51382-99.772354 0 0-28.14092 81.352843 0-94.655823-158.100808 40.932248 0 91.074252 155.030889 90.050945-155.030889L641.788995 479.08331z" /></svg>